<svg xmlns="http://www.w3.org/2000/svg" width="983" height="494" viewBox="0 0 983 494">
  <path fill="none" stroke="#000" stroke-linecap="butt" stroke-width="50" d="M0.621085733,244.619818 L0,245.239636 L0.621085733,244.619818 L244.619041,488.119818 L489.118018,244.119818 L244.498978,0 L489.118018,244.119818 L244.619041,488.119818 L0.621085733,244.619818 Z M0.621085733,244.619818 L0,244 L0.621085733,244.619818 L244.739104,1 L0.621085733,244.619818 Z M244.619041,488.119818 L244.498978,488.239636 L244.619041,488.119818 L244.739104,488.239636 L244.619041,488.119818 Z M489.118018,244.119818 L489.238081,244 L489.118018,244.119818 L489.238081,244.239636 L489.118018,244.119818 Z M734.119818,0.119818211 L978.119818,244.119818 L734.119818,488.119818 L490.119818,244.119818 L490,244.239636 L490.119818,244.119818 L734.119818,488.119818 L978.119818,244.119818 L734.119818,0.119818211 L490.119818,244.119818 L490,244 L490.119818,244.119818 L734.119818,0.119818211 Z M734.119818,0.119818211 L734,0 L734.119818,0.119818211 L734.239636,0 L734.119818,0.119818211 Z M734.119818,488.119818 L734,488.239636 L734.119818,488.119818 L734.239636,488.239636 L734.119818,488.119818 Z M978.119818,244.119818 L978.239636,244 L978.119818,244.119818 L978.239636,244.239636 L978.119818,244.119818 Z" transform="translate(2 3)"/>
</svg>
