<svg xmlns="http://www.w3.org/2000/svg" width="983" height="494" viewBox="0 0 983 494"><path fill="none" stroke="#000" stroke-width="50" d="M2.621 247.62l-.621.62.621-.62 243.998 243.5 244.499-244L246.499 3l244.619 244.12-244.499 244L2.621 247.62zm0 0L2 247l.621.62L246.74 4 2.621 247.62zm243.998 243.5l-.12.12.12-.12.12.12-.12-.12zm244.499-244l.12-.12-.12.12.12.12-.12-.12zm245.002-244l244 244-244 244-244-244-.12.12.12-.12 244 244 244-244-244-244-244 244-.12-.12.12.12 244-244zm0 0L736 3l.12.12.12-.12-.12.12zm0 488l-.12.12.12-.12.12.12-.12-.12zm244-244l.12-.12-.12.12.12.12-.12-.12z"/></svg>